<svg width="55" height="56" viewBox="0 0 55 56" fill="none" xmlns="http://www.w3.org/2000/svg">
<path d="M49.7797 16.5029C54.3055 11.9334 55.4377 5.64181 52.3037 2.4776C49.1697 -0.686609 42.9383 0.456569 38.4125 5.02605C34.1316 9.34821 32.8892 15.2096 35.4194 18.5092L29.512 24.4735L28.3165 23.2664L0.0842086 51.7709L3.48081 55.2003L31.7132 26.6956L30.5178 25.4887L36.4251 19.5244C39.6934 22.0791 45.4988 20.825 49.7797 16.5029ZM29.6176 26.7812L3.56571 53.0842L2.18044 51.6856L28.2323 25.3826L29.6176 26.7812ZM36.9784 17.9506C34.3991 15.3465 35.4938 10.004 39.4185 6.04147C43.3431 2.07898 48.6346 0.973691 51.2139 3.57786C53.7934 6.18217 52.6987 11.5248 48.7741 15.4873C44.8494 19.4498 39.5578 20.5549 36.9784 17.9506Z" fill="white"/>
</svg>
